<svg xmlns="http://www.w3.org/2000/svg" width="512" height="512" viewBox="0 0 512 512">
  <rect width="512" height="512" fill="#202a1f"/>
  <g fill="#3f4f36" stroke="#263124" stroke-width="3">
    <rect x="0" y="0" width="170" height="128" rx="10"/>
    <rect x="170" y="0" width="170" height="128" rx="10"/>
    <rect x="340" y="0" width="172" height="128" rx="10"/>
    <rect x="0" y="128" width="128" height="128" rx="10"/>
    <rect x="128" y="128" width="128" height="128" rx="10"/>
    <rect x="256" y="128" width="128" height="128" rx="10"/>
    <rect x="384" y="128" width="128" height="128" rx="10"/>
    <rect x="0" y="256" width="170" height="128" rx="10"/>
    <rect x="170" y="256" width="170" height="128" rx="10"/>
    <rect x="340" y="256" width="172" height="128" rx="10"/>
    <rect x="0" y="384" width="128" height="128" rx="10"/>
    <rect x="128" y="384" width="128" height="128" rx="10"/>
    <rect x="256" y="384" width="128" height="128" rx="10"/>
    <rect x="384" y="384" width="128" height="128" rx="10"/>
  </g>
</svg>
